<mxfile host="app.diagrams.net" modified="2023-09-05T19:09:49.595Z" agent="Mozilla/5.0 (Windows NT 10.0; Win64; x64) AppleWebKit/537.36 (KHTML, like Gecko) Chrome/116.0.0.0 Safari/537.36" etag="KvasTU2wjHlq8F5o2d_x" version="21.7.2" type="device">
  <diagram id="kgpKYQtTHZ0yAKxKKP6v" name="Page-1">
    <mxGraphModel dx="2412" dy="1962" grid="1" gridSize="10" guides="1" tooltips="1" connect="1" arrows="1" fold="1" page="1" pageScale="1" pageWidth="850" pageHeight="1100" math="0" shadow="0">
      <root>
        <mxCell id="0" />
        <mxCell id="1" parent="0" />
        <mxCell id="ROyKjx6-kNw4g7D_P5h5-13" value="" style="edgeStyle=orthogonalEdgeStyle;rounded=0;orthogonalLoop=1;jettySize=auto;html=1;entryX=0.5;entryY=1;entryDx=0;entryDy=0;dashed=1;endArrow=none;endFill=0;strokeColor=#000000;" edge="1" parent="1">
          <mxGeometry relative="1" as="geometry">
            <mxPoint x="-35.5" y="1020" as="sourcePoint" />
            <mxPoint x="-35.5" y="10" as="targetPoint" />
          </mxGeometry>
        </mxCell>
        <mxCell id="naLQoQvjF8YPUEuu64ZZ-2" value="" style="html=1;points=[];perimeter=orthogonalPerimeter;" parent="1" vertex="1">
          <mxGeometry x="-40" y="240" width="10" height="80" as="geometry" />
        </mxCell>
        <mxCell id="naLQoQvjF8YPUEuu64ZZ-12" value="&lt;b&gt;ECA desktop&lt;/b&gt;" style="html=1;strokeWidth=2;" parent="1" vertex="1">
          <mxGeometry x="-90" y="-40" width="110" height="50" as="geometry" />
        </mxCell>
        <mxCell id="naLQoQvjF8YPUEuu64ZZ-18" style="edgeStyle=orthogonalEdgeStyle;rounded=0;orthogonalLoop=1;jettySize=auto;html=1;entryX=0.5;entryY=1;entryDx=0;entryDy=0;dashed=1;endArrow=none;endFill=0;" parent="1" source="naLQoQvjF8YPUEuu64ZZ-13" target="naLQoQvjF8YPUEuu64ZZ-17" edge="1">
          <mxGeometry relative="1" as="geometry" />
        </mxCell>
        <mxCell id="naLQoQvjF8YPUEuu64ZZ-13" value="" style="html=1;points=[];perimeter=orthogonalPerimeter;" parent="1" vertex="1">
          <mxGeometry x="320" y="250" width="10" height="80" as="geometry" />
        </mxCell>
        <mxCell id="naLQoQvjF8YPUEuu64ZZ-16" value="&lt;font style=&quot;font-size: 11px&quot;&gt;Отправка запроса на &lt;br&gt;построение модели в очередь&lt;/font&gt;" style="html=1;verticalAlign=bottom;endArrow=block;exitX=1.12;exitY=0.495;exitDx=0;exitDy=0;exitPerimeter=0;" parent="1" edge="1" source="naLQoQvjF8YPUEuu64ZZ-2">
          <mxGeometry x="0.0038" y="11" width="80" relative="1" as="geometry">
            <mxPoint x="80" y="280" as="sourcePoint" />
            <mxPoint x="321" y="279" as="targetPoint" />
            <mxPoint as="offset" />
          </mxGeometry>
        </mxCell>
        <mxCell id="naLQoQvjF8YPUEuu64ZZ-17" value="&lt;b&gt;Rabbit MQ&lt;/b&gt;" style="html=1;" parent="1" vertex="1">
          <mxGeometry x="270" y="-40" width="110" height="50" as="geometry" />
        </mxCell>
        <mxCell id="naLQoQvjF8YPUEuu64ZZ-22" value="&lt;b&gt;Eca server&lt;/b&gt;" style="html=1;strokeWidth=2;" parent="1" vertex="1">
          <mxGeometry x="510" y="-40" width="110" height="50" as="geometry" />
        </mxCell>
        <mxCell id="naLQoQvjF8YPUEuu64ZZ-24" value="&lt;b&gt;Eca ers&lt;/b&gt;" style="html=1;strokeWidth=2;" parent="1" vertex="1">
          <mxGeometry x="860" y="-40" width="110" height="50" as="geometry" />
        </mxCell>
        <mxCell id="naLQoQvjF8YPUEuu64ZZ-40" style="edgeStyle=orthogonalEdgeStyle;rounded=0;orthogonalLoop=1;jettySize=auto;html=1;entryX=0.5;entryY=1;entryDx=0;entryDy=0;dashed=1;endArrow=none;endFill=0;strokeColor=#000000;" parent="1" source="naLQoQvjF8YPUEuu64ZZ-25" target="naLQoQvjF8YPUEuu64ZZ-22" edge="1">
          <mxGeometry relative="1" as="geometry" />
        </mxCell>
        <mxCell id="naLQoQvjF8YPUEuu64ZZ-56" style="edgeStyle=orthogonalEdgeStyle;rounded=0;orthogonalLoop=1;jettySize=auto;html=1;dashed=1;endArrow=none;endFill=0;strokeColor=#000000;" parent="1" source="naLQoQvjF8YPUEuu64ZZ-25" edge="1">
          <mxGeometry relative="1" as="geometry">
            <mxPoint x="565" y="1160" as="targetPoint" />
          </mxGeometry>
        </mxCell>
        <mxCell id="naLQoQvjF8YPUEuu64ZZ-25" value="" style="html=1;points=[];perimeter=orthogonalPerimeter;" parent="1" vertex="1">
          <mxGeometry x="560" y="390" width="10" height="530" as="geometry" />
        </mxCell>
        <mxCell id="naLQoQvjF8YPUEuu64ZZ-31" value="" style="html=1;points=[];perimeter=orthogonalPerimeter;" parent="1" vertex="1">
          <mxGeometry x="320" y="370" width="10" height="80" as="geometry" />
        </mxCell>
        <mxCell id="naLQoQvjF8YPUEuu64ZZ-32" style="edgeStyle=orthogonalEdgeStyle;rounded=0;orthogonalLoop=1;jettySize=auto;html=1;dashed=1;endArrow=none;endFill=0;" parent="1" source="naLQoQvjF8YPUEuu64ZZ-13" target="naLQoQvjF8YPUEuu64ZZ-31" edge="1">
          <mxGeometry relative="1" as="geometry">
            <mxPoint x="325" y="770" as="targetPoint" />
            <mxPoint x="325" y="330" as="sourcePoint" />
          </mxGeometry>
        </mxCell>
        <mxCell id="naLQoQvjF8YPUEuu64ZZ-34" value="&lt;font style=&quot;font-size: 11px&quot;&gt;Получение сообщения из очереди&lt;/font&gt;" style="html=1;verticalAlign=bottom;endArrow=block;strokeColor=#000000;exitX=1.28;exitY=0.44;exitDx=0;exitDy=0;exitPerimeter=0;" parent="1" edge="1" source="naLQoQvjF8YPUEuu64ZZ-31">
          <mxGeometry x="-0.0434" y="9" width="80" relative="1" as="geometry">
            <mxPoint x="330" y="423" as="sourcePoint" />
            <mxPoint x="560" y="405" as="targetPoint" />
            <mxPoint as="offset" />
          </mxGeometry>
        </mxCell>
        <mxCell id="naLQoQvjF8YPUEuu64ZZ-35" value="" style="html=1;points=[];perimeter=orthogonalPerimeter;" parent="1" vertex="1">
          <mxGeometry x="570" y="440" width="10" height="40" as="geometry" />
        </mxCell>
        <mxCell id="naLQoQvjF8YPUEuu64ZZ-36" value="Сохранение запроса в БД" style="edgeStyle=orthogonalEdgeStyle;html=1;align=left;spacingLeft=2;endArrow=block;rounded=0;strokeColor=#000000;" parent="1" edge="1">
          <mxGeometry x="-0.0989" y="10" relative="1" as="geometry">
            <mxPoint x="569" y="430" as="sourcePoint" />
            <Array as="points">
              <mxPoint x="600" y="430" />
              <mxPoint x="600" y="470" />
            </Array>
            <mxPoint x="580" y="470" as="targetPoint" />
            <mxPoint as="offset" />
          </mxGeometry>
        </mxCell>
        <mxCell id="naLQoQvjF8YPUEuu64ZZ-38" value="" style="html=1;points=[];perimeter=orthogonalPerimeter;" parent="1" vertex="1">
          <mxGeometry x="570" y="570" width="10" height="40" as="geometry" />
        </mxCell>
        <mxCell id="naLQoQvjF8YPUEuu64ZZ-48" style="edgeStyle=orthogonalEdgeStyle;rounded=0;orthogonalLoop=1;jettySize=auto;html=1;entryX=0.5;entryY=1;entryDx=0;entryDy=0;endArrow=none;endFill=0;strokeColor=#000000;dashed=1;" parent="1" source="naLQoQvjF8YPUEuu64ZZ-42" target="naLQoQvjF8YPUEuu64ZZ-24" edge="1">
          <mxGeometry relative="1" as="geometry" />
        </mxCell>
        <mxCell id="naLQoQvjF8YPUEuu64ZZ-57" style="edgeStyle=orthogonalEdgeStyle;rounded=0;orthogonalLoop=1;jettySize=auto;html=1;dashed=1;endArrow=none;endFill=0;strokeColor=#000000;" parent="1" source="naLQoQvjF8YPUEuu64ZZ-42" edge="1">
          <mxGeometry relative="1" as="geometry">
            <mxPoint x="915" y="1160" as="targetPoint" />
          </mxGeometry>
        </mxCell>
        <mxCell id="naLQoQvjF8YPUEuu64ZZ-42" value="" style="html=1;points=[];perimeter=orthogonalPerimeter;" parent="1" vertex="1">
          <mxGeometry x="910" y="600" width="10" height="120" as="geometry" />
        </mxCell>
        <mxCell id="naLQoQvjF8YPUEuu64ZZ-44" value="&lt;font style=&quot;font-size: 11px&quot;&gt;Запрос на сохранение&lt;br&gt;результатов классификации&lt;/font&gt;" style="html=1;verticalAlign=bottom;endArrow=block;strokeColor=#000000;" parent="1" edge="1">
          <mxGeometry x="-0.0028" y="10" width="80" relative="1" as="geometry">
            <mxPoint x="570" y="620" as="sourcePoint" />
            <mxPoint x="911" y="619" as="targetPoint" />
            <mxPoint as="offset" />
          </mxGeometry>
        </mxCell>
        <mxCell id="naLQoQvjF8YPUEuu64ZZ-45" value="&lt;font style=&quot;font-size: 11px&quot;&gt;Получение ответа на запрос&lt;/font&gt;" style="html=1;verticalAlign=bottom;endArrow=open;dashed=1;endSize=8;strokeColor=#000000;exitX=-0.165;exitY=0.781;exitDx=0;exitDy=0;exitPerimeter=0;" parent="1" source="naLQoQvjF8YPUEuu64ZZ-42" target="naLQoQvjF8YPUEuu64ZZ-25" edge="1">
          <mxGeometry relative="1" as="geometry">
            <mxPoint x="910" y="680" as="sourcePoint" />
            <mxPoint x="830" y="680" as="targetPoint" />
          </mxGeometry>
        </mxCell>
        <mxCell id="naLQoQvjF8YPUEuu64ZZ-46" value="&lt;font style=&quot;font-size: 11px&quot;&gt;Построение модели классификатора&lt;/font&gt;" style="edgeStyle=orthogonalEdgeStyle;html=1;align=left;spacingLeft=2;endArrow=block;rounded=0;strokeColor=#000000;" parent="1" edge="1">
          <mxGeometry x="-0.0989" y="10" relative="1" as="geometry">
            <mxPoint x="570" y="550" as="sourcePoint" />
            <Array as="points">
              <mxPoint x="570" y="550" />
              <mxPoint x="601" y="550" />
              <mxPoint x="601" y="590" />
            </Array>
            <mxPoint x="581" y="590" as="targetPoint" />
            <mxPoint as="offset" />
          </mxGeometry>
        </mxCell>
        <mxCell id="naLQoQvjF8YPUEuu64ZZ-55" style="edgeStyle=orthogonalEdgeStyle;rounded=0;orthogonalLoop=1;jettySize=auto;html=1;dashed=1;endArrow=none;endFill=0;strokeColor=#000000;" parent="1" source="naLQoQvjF8YPUEuu64ZZ-58" edge="1">
          <mxGeometry relative="1" as="geometry">
            <mxPoint x="325" y="1160" as="targetPoint" />
          </mxGeometry>
        </mxCell>
        <mxCell id="naLQoQvjF8YPUEuu64ZZ-50" value="" style="html=1;points=[];perimeter=orthogonalPerimeter;" parent="1" vertex="1">
          <mxGeometry x="320" y="840" width="10" height="80" as="geometry" />
        </mxCell>
        <mxCell id="naLQoQvjF8YPUEuu64ZZ-51" style="edgeStyle=orthogonalEdgeStyle;rounded=0;orthogonalLoop=1;jettySize=auto;html=1;dashed=1;endArrow=none;endFill=0;" parent="1" source="naLQoQvjF8YPUEuu64ZZ-31" target="naLQoQvjF8YPUEuu64ZZ-50" edge="1">
          <mxGeometry relative="1" as="geometry">
            <mxPoint x="325" y="760" as="targetPoint" />
            <mxPoint x="325" y="450" as="sourcePoint" />
          </mxGeometry>
        </mxCell>
        <mxCell id="naLQoQvjF8YPUEuu64ZZ-52" value="&lt;font style=&quot;font-size: 11px&quot;&gt;Отправка сообщения&lt;br&gt;с построенной моделью в очередь&lt;/font&gt;" style="html=1;verticalAlign=bottom;endArrow=open;dashed=1;endSize=8;strokeColor=#000000;exitX=0;exitY=0.959;exitDx=0;exitDy=0;exitPerimeter=0;" parent="1" source="naLQoQvjF8YPUEuu64ZZ-25" target="naLQoQvjF8YPUEuu64ZZ-50" edge="1">
          <mxGeometry x="0.0435" y="-9" relative="1" as="geometry">
            <mxPoint x="560" y="739.5" as="sourcePoint" />
            <mxPoint x="480" y="739.5" as="targetPoint" />
            <mxPoint as="offset" />
          </mxGeometry>
        </mxCell>
        <mxCell id="naLQoQvjF8YPUEuu64ZZ-53" value="" style="html=1;points=[];perimeter=orthogonalPerimeter;" parent="1" vertex="1">
          <mxGeometry x="-40" y="1010" width="10" height="140" as="geometry" />
        </mxCell>
        <mxCell id="naLQoQvjF8YPUEuu64ZZ-59" style="edgeStyle=orthogonalEdgeStyle;rounded=0;orthogonalLoop=1;jettySize=auto;html=1;dashed=1;endArrow=none;endFill=0;strokeColor=#000000;" parent="1" source="naLQoQvjF8YPUEuu64ZZ-50" target="naLQoQvjF8YPUEuu64ZZ-58" edge="1">
          <mxGeometry relative="1" as="geometry">
            <mxPoint x="325" y="1000" as="targetPoint" />
            <mxPoint x="325" y="780" as="sourcePoint" />
          </mxGeometry>
        </mxCell>
        <mxCell id="naLQoQvjF8YPUEuu64ZZ-60" value="&lt;font style=&quot;font-size: 11px&quot;&gt;Получение ответного&lt;br&gt;сообщения из очереди&lt;/font&gt;" style="html=1;verticalAlign=bottom;endArrow=open;dashed=1;endSize=8;strokeColor=#000000;entryX=0.9;entryY=0.286;entryDx=0;entryDy=0;entryPerimeter=0;" parent="1" source="naLQoQvjF8YPUEuu64ZZ-58" target="naLQoQvjF8YPUEuu64ZZ-53" edge="1">
          <mxGeometry x="-0.0041" relative="1" as="geometry">
            <mxPoint x="320" y="1040" as="sourcePoint" />
            <mxPoint x="240" y="869.5" as="targetPoint" />
            <mxPoint as="offset" />
          </mxGeometry>
        </mxCell>
        <mxCell id="Wha3gfl5ObDoSyTYLjjx-1" value="" style="html=1;points=[];perimeter=orthogonalPerimeter;" parent="1" vertex="1">
          <mxGeometry x="920" y="640" width="10" height="40" as="geometry" />
        </mxCell>
        <mxCell id="Wha3gfl5ObDoSyTYLjjx-2" value="Сохранение результатов&lt;br&gt;классификации в БД" style="edgeStyle=orthogonalEdgeStyle;html=1;align=center;spacingLeft=2;endArrow=block;rounded=0;strokeColor=#000000;" parent="1" edge="1">
          <mxGeometry x="-0.1001" y="79" relative="1" as="geometry">
            <mxPoint x="920" y="630" as="sourcePoint" />
            <Array as="points">
              <mxPoint x="920" y="630" />
              <mxPoint x="951" y="630" />
              <mxPoint x="951" y="670" />
            </Array>
            <mxPoint x="931" y="670" as="targetPoint" />
            <mxPoint as="offset" />
          </mxGeometry>
        </mxCell>
        <mxCell id="bhw_Wczlu2RFrwPE-7u4-1" value="&lt;b&gt;S3 storage (minio)&lt;/b&gt;" style="html=1;strokeWidth=2;" parent="1" vertex="1">
          <mxGeometry x="1180" y="-40" width="110" height="50" as="geometry" />
        </mxCell>
        <mxCell id="bhw_Wczlu2RFrwPE-7u4-3" style="edgeStyle=orthogonalEdgeStyle;rounded=0;orthogonalLoop=1;jettySize=auto;html=1;endArrow=none;endFill=0;strokeColor=#000000;dashed=1;entryX=0.5;entryY=1;entryDx=0;entryDy=0;" parent="1" source="ROyKjx6-kNw4g7D_P5h5-15" edge="1" target="bhw_Wczlu2RFrwPE-7u4-1">
          <mxGeometry relative="1" as="geometry">
            <mxPoint x="1240" y="1120" as="sourcePoint" />
            <mxPoint x="1240" y="10" as="targetPoint" />
            <Array as="points" />
          </mxGeometry>
        </mxCell>
        <mxCell id="bhw_Wczlu2RFrwPE-7u4-5" value="" style="edgeStyle=orthogonalEdgeStyle;rounded=0;orthogonalLoop=1;jettySize=auto;html=1;entryX=0.5;entryY=1;entryDx=0;entryDy=0;endArrow=none;endFill=0;strokeColor=#000000;dashed=1;" parent="1" source="bhw_Wczlu2RFrwPE-7u4-9" target="bhw_Wczlu2RFrwPE-7u4-4" edge="1">
          <mxGeometry relative="1" as="geometry">
            <mxPoint x="1245" y="1120" as="sourcePoint" />
            <mxPoint x="1240" y="150" as="targetPoint" />
          </mxGeometry>
        </mxCell>
        <mxCell id="bhw_Wczlu2RFrwPE-7u4-4" value="" style="html=1;points=[];perimeter=orthogonalPerimeter;" parent="1" vertex="1">
          <mxGeometry x="1230" y="750" width="10" height="60" as="geometry" />
        </mxCell>
        <mxCell id="bhw_Wczlu2RFrwPE-7u4-6" value="&lt;font style=&quot;font-size: 11px&quot;&gt;Запрос на сохранение&lt;br&gt;модели классификатора в S3&lt;br&gt;&lt;/font&gt;" style="html=1;verticalAlign=bottom;endArrow=block;strokeColor=#000000;entryX=0.059;entryY=0.31;entryDx=0;entryDy=0;entryPerimeter=0;" parent="1" target="bhw_Wczlu2RFrwPE-7u4-4" edge="1">
          <mxGeometry x="-0.0028" y="10" width="80" relative="1" as="geometry">
            <mxPoint x="570" y="769" as="sourcePoint" />
            <mxPoint x="911" y="770" as="targetPoint" />
            <mxPoint as="offset" />
          </mxGeometry>
        </mxCell>
        <mxCell id="bhw_Wczlu2RFrwPE-7u4-7" value="&lt;font style=&quot;font-size: 11px&quot;&gt;Получение ответа на запрос&lt;/font&gt;" style="html=1;verticalAlign=bottom;endArrow=open;dashed=1;endSize=8;strokeColor=#000000;exitX=0.059;exitY=0.702;exitDx=0;exitDy=0;exitPerimeter=0;entryX=0.859;entryY=0.755;entryDx=0;entryDy=0;entryPerimeter=0;" parent="1" source="bhw_Wczlu2RFrwPE-7u4-4" target="naLQoQvjF8YPUEuu64ZZ-25" edge="1">
          <mxGeometry relative="1" as="geometry">
            <mxPoint x="1208" y="800" as="sourcePoint" />
            <mxPoint x="870" y="800" as="targetPoint" />
          </mxGeometry>
        </mxCell>
        <mxCell id="bhw_Wczlu2RFrwPE-7u4-10" value="" style="edgeStyle=orthogonalEdgeStyle;rounded=0;orthogonalLoop=1;jettySize=auto;html=1;entryX=0.5;entryY=1;entryDx=0;entryDy=0;endArrow=none;endFill=0;strokeColor=#000000;dashed=1;" parent="1" source="bhw_Wczlu2RFrwPE-7u4-15" target="bhw_Wczlu2RFrwPE-7u4-9" edge="1">
          <mxGeometry relative="1" as="geometry">
            <mxPoint x="1245" y="1160" as="sourcePoint" />
            <mxPoint x="1245" y="810" as="targetPoint" />
            <Array as="points">
              <mxPoint x="1235" y="1110" />
            </Array>
          </mxGeometry>
        </mxCell>
        <mxCell id="bhw_Wczlu2RFrwPE-7u4-9" value="" style="html=1;points=[];perimeter=orthogonalPerimeter;" parent="1" vertex="1">
          <mxGeometry x="1230" y="830" width="10" height="60" as="geometry" />
        </mxCell>
        <mxCell id="bhw_Wczlu2RFrwPE-7u4-11" value="&lt;font style=&quot;font-size: 11px&quot;&gt;Запрос на формирование ссылки (presignedUrl) для скачивания модели классификатора из S3&lt;br&gt;&lt;/font&gt;" style="html=1;verticalAlign=bottom;endArrow=block;strokeColor=#000000;" parent="1" edge="1">
          <mxGeometry x="-0.0028" y="10" width="80" relative="1" as="geometry">
            <mxPoint x="569" y="840" as="sourcePoint" />
            <mxPoint x="1230" y="840" as="targetPoint" />
            <mxPoint as="offset" />
          </mxGeometry>
        </mxCell>
        <mxCell id="bhw_Wczlu2RFrwPE-7u4-12" value="&lt;font style=&quot;font-size: 11px&quot;&gt;Получение ответа на запрос&lt;/font&gt;" style="html=1;verticalAlign=bottom;endArrow=open;dashed=1;endSize=8;strokeColor=#000000;" parent="1" edge="1">
          <mxGeometry relative="1" as="geometry">
            <mxPoint x="1230" y="870" as="sourcePoint" />
            <mxPoint x="568" y="870" as="targetPoint" />
          </mxGeometry>
        </mxCell>
        <mxCell id="bhw_Wczlu2RFrwPE-7u4-13" value="" style="html=1;verticalAlign=bottom;endArrow=open;dashed=1;endSize=8;strokeColor=#000000;entryX=0.9;entryY=0.25;entryDx=0;entryDy=0;entryPerimeter=0;" parent="1" target="naLQoQvjF8YPUEuu64ZZ-58" edge="1">
          <mxGeometry x="-0.0041" relative="1" as="geometry">
            <mxPoint x="320" y="1040" as="sourcePoint" />
            <mxPoint x="79" y="1048" as="targetPoint" />
            <mxPoint as="offset" />
          </mxGeometry>
        </mxCell>
        <mxCell id="naLQoQvjF8YPUEuu64ZZ-58" value="" style="html=1;points=[];perimeter=orthogonalPerimeter;" parent="1" vertex="1">
          <mxGeometry x="320" y="990" width="10" height="80" as="geometry" />
        </mxCell>
        <mxCell id="bhw_Wczlu2RFrwPE-7u4-16" value="" style="edgeStyle=orthogonalEdgeStyle;rounded=0;orthogonalLoop=1;jettySize=auto;html=1;entryX=0.5;entryY=1;entryDx=0;entryDy=0;endArrow=none;endFill=0;strokeColor=#000000;dashed=1;" parent="1" target="bhw_Wczlu2RFrwPE-7u4-15" edge="1">
          <mxGeometry relative="1" as="geometry">
            <mxPoint x="1235" y="1160" as="sourcePoint" />
            <mxPoint x="1245" y="890" as="targetPoint" />
          </mxGeometry>
        </mxCell>
        <mxCell id="bhw_Wczlu2RFrwPE-7u4-15" value="" style="html=1;points=[];perimeter=orthogonalPerimeter;" parent="1" vertex="1">
          <mxGeometry x="1230" y="1080" width="10" height="60" as="geometry" />
        </mxCell>
        <mxCell id="bhw_Wczlu2RFrwPE-7u4-18" value="&lt;font style=&quot;font-size: 11px&quot;&gt;Скачивание модели классификатора по ссылке из S3&lt;br&gt;&lt;/font&gt;" style="html=1;verticalAlign=bottom;endArrow=block;strokeColor=#000000;entryX=0;entryY=0.333;entryDx=0;entryDy=0;entryPerimeter=0;exitX=1.36;exitY=0.651;exitDx=0;exitDy=0;exitPerimeter=0;" parent="1" target="bhw_Wczlu2RFrwPE-7u4-15" edge="1" source="naLQoQvjF8YPUEuu64ZZ-53">
          <mxGeometry x="-0.0172" y="10" width="80" relative="1" as="geometry">
            <mxPoint x="80" y="1100" as="sourcePoint" />
            <mxPoint x="751" y="1100" as="targetPoint" />
            <mxPoint x="-1" as="offset" />
          </mxGeometry>
        </mxCell>
        <mxCell id="bhw_Wczlu2RFrwPE-7u4-19" value="&lt;font style=&quot;font-size: 11px&quot;&gt;Получение ответа на запрос&lt;/font&gt;" style="html=1;verticalAlign=bottom;endArrow=open;dashed=1;endSize=8;strokeColor=#000000;entryX=0.96;entryY=0.829;entryDx=0;entryDy=0;entryPerimeter=0;exitX=-0.28;exitY=0.78;exitDx=0;exitDy=0;exitPerimeter=0;" parent="1" target="naLQoQvjF8YPUEuu64ZZ-53" edge="1" source="bhw_Wczlu2RFrwPE-7u4-15">
          <mxGeometry relative="1" as="geometry">
            <mxPoint x="1230" y="1130" as="sourcePoint" />
            <mxPoint x="568" y="1130" as="targetPoint" />
          </mxGeometry>
        </mxCell>
        <mxCell id="ROyKjx6-kNw4g7D_P5h5-2" value="&lt;b&gt;Eca data loader&lt;/b&gt;" style="html=1;strokeWidth=2;" vertex="1" parent="1">
          <mxGeometry x="90" y="-40" width="110" height="50" as="geometry" />
        </mxCell>
        <mxCell id="ROyKjx6-kNw4g7D_P5h5-4" value="" style="html=1;points=[];perimeter=orthogonalPerimeter;" vertex="1" parent="1">
          <mxGeometry x="-40" y="60" width="10" height="80" as="geometry" />
        </mxCell>
        <mxCell id="ROyKjx6-kNw4g7D_P5h5-5" style="edgeStyle=orthogonalEdgeStyle;rounded=0;orthogonalLoop=1;jettySize=auto;html=1;entryX=0.5;entryY=1;entryDx=0;entryDy=0;dashed=1;endArrow=none;endFill=0;strokeColor=#000000;" edge="1" parent="1" source="ROyKjx6-kNw4g7D_P5h5-7">
          <mxGeometry relative="1" as="geometry">
            <mxPoint x="145" y="1160" as="sourcePoint" />
            <mxPoint x="144.5" y="10" as="targetPoint" />
          </mxGeometry>
        </mxCell>
        <mxCell id="ROyKjx6-kNw4g7D_P5h5-6" value="&lt;font style=&quot;font-size: 11px&quot;&gt;Сохранение&lt;br&gt;обучающей выборки&lt;br&gt;&lt;/font&gt;" style="html=1;verticalAlign=bottom;endArrow=block;exitX=1.12;exitY=0.495;exitDx=0;exitDy=0;exitPerimeter=0;entryX=0.212;entryY=0.135;entryDx=0;entryDy=0;entryPerimeter=0;" edge="1" parent="1" target="ROyKjx6-kNw4g7D_P5h5-7">
          <mxGeometry x="0.0038" y="11" width="80" relative="1" as="geometry">
            <mxPoint x="-30" y="81" as="sourcePoint" />
            <mxPoint x="130" y="80" as="targetPoint" />
            <mxPoint as="offset" />
          </mxGeometry>
        </mxCell>
        <mxCell id="ROyKjx6-kNw4g7D_P5h5-8" value="" style="edgeStyle=orthogonalEdgeStyle;rounded=0;orthogonalLoop=1;jettySize=auto;html=1;entryX=0.5;entryY=1;entryDx=0;entryDy=0;dashed=1;endArrow=none;endFill=0;strokeColor=#000000;" edge="1" parent="1" target="ROyKjx6-kNw4g7D_P5h5-7">
          <mxGeometry relative="1" as="geometry">
            <mxPoint x="145" y="1160" as="sourcePoint" />
            <mxPoint x="144.5" y="10" as="targetPoint" />
          </mxGeometry>
        </mxCell>
        <mxCell id="ROyKjx6-kNw4g7D_P5h5-7" value="" style="html=1;points=[];perimeter=orthogonalPerimeter;" vertex="1" parent="1">
          <mxGeometry x="140" y="70" width="10" height="80" as="geometry" />
        </mxCell>
        <mxCell id="ROyKjx6-kNw4g7D_P5h5-9" value="&lt;font style=&quot;font-size: 11px&quot;&gt;Получение ответа на запрос&lt;br&gt;c dataUuid&lt;/font&gt;" style="html=1;verticalAlign=bottom;endArrow=open;dashed=1;endSize=8;strokeColor=#000000;exitX=0;exitY=0.75;exitDx=0;exitDy=0;exitPerimeter=0;" edge="1" parent="1" source="ROyKjx6-kNw4g7D_P5h5-7">
          <mxGeometry relative="1" as="geometry">
            <mxPoint x="308" y="130" as="sourcePoint" />
            <mxPoint x="-30" y="130" as="targetPoint" />
          </mxGeometry>
        </mxCell>
        <mxCell id="ROyKjx6-kNw4g7D_P5h5-10" value="&lt;font style=&quot;font-size: 11px&quot;&gt;Сохранение&lt;br&gt;обучающей выборки в S3&lt;br&gt;&lt;/font&gt;" style="html=1;verticalAlign=bottom;endArrow=block;exitX=1.12;exitY=0.495;exitDx=0;exitDy=0;exitPerimeter=0;entryX=-0.04;entryY=0.395;entryDx=0;entryDy=0;entryPerimeter=0;" edge="1" parent="1" target="ROyKjx6-kNw4g7D_P5h5-15">
          <mxGeometry x="0.0038" y="11" width="80" relative="1" as="geometry">
            <mxPoint x="150" y="91" as="sourcePoint" />
            <mxPoint x="1240" y="90" as="targetPoint" />
            <mxPoint as="offset" />
          </mxGeometry>
        </mxCell>
        <mxCell id="ROyKjx6-kNw4g7D_P5h5-11" value="&lt;font style=&quot;font-size: 11px&quot;&gt;Получение ответа на запрос&lt;/font&gt;" style="html=1;verticalAlign=bottom;endArrow=open;dashed=1;endSize=8;strokeColor=#000000;" edge="1" parent="1">
          <mxGeometry relative="1" as="geometry">
            <mxPoint x="1240" y="120" as="sourcePoint" />
            <mxPoint x="150" y="120" as="targetPoint" />
          </mxGeometry>
        </mxCell>
        <mxCell id="ROyKjx6-kNw4g7D_P5h5-14" value="&lt;font style=&quot;font-size: 11px&quot;&gt;Запрос на получение обучающей выборки по dataUuid&lt;br&gt;&lt;/font&gt;" style="html=1;verticalAlign=bottom;endArrow=block;strokeColor=#000000;entryX=-0.04;entryY=0.415;entryDx=0;entryDy=0;entryPerimeter=0;" edge="1" parent="1" target="ROyKjx6-kNw4g7D_P5h5-17">
          <mxGeometry x="-0.0028" y="10" width="80" relative="1" as="geometry">
            <mxPoint x="570" y="511" as="sourcePoint" />
            <mxPoint x="911" y="510" as="targetPoint" />
            <mxPoint as="offset" />
          </mxGeometry>
        </mxCell>
        <mxCell id="ROyKjx6-kNw4g7D_P5h5-16" value="" style="edgeStyle=orthogonalEdgeStyle;rounded=0;orthogonalLoop=1;jettySize=auto;html=1;endArrow=none;endFill=0;strokeColor=#000000;dashed=1;entryX=0.5;entryY=1;entryDx=0;entryDy=0;" edge="1" parent="1" source="ROyKjx6-kNw4g7D_P5h5-17" target="ROyKjx6-kNw4g7D_P5h5-15">
          <mxGeometry relative="1" as="geometry">
            <mxPoint x="1240" y="780" as="sourcePoint" />
            <mxPoint x="1235" y="10" as="targetPoint" />
            <Array as="points" />
          </mxGeometry>
        </mxCell>
        <mxCell id="ROyKjx6-kNw4g7D_P5h5-15" value="" style="html=1;points=[];perimeter=orthogonalPerimeter;" vertex="1" parent="1">
          <mxGeometry x="1230" y="60" width="10" height="80" as="geometry" />
        </mxCell>
        <mxCell id="ROyKjx6-kNw4g7D_P5h5-18" value="" style="edgeStyle=orthogonalEdgeStyle;rounded=0;orthogonalLoop=1;jettySize=auto;html=1;endArrow=none;endFill=0;strokeColor=#000000;dashed=1;entryX=0.5;entryY=1;entryDx=0;entryDy=0;" edge="1" parent="1" source="bhw_Wczlu2RFrwPE-7u4-4" target="ROyKjx6-kNw4g7D_P5h5-17">
          <mxGeometry relative="1" as="geometry">
            <mxPoint x="1240" y="780" as="sourcePoint" />
            <mxPoint x="1235" y="140" as="targetPoint" />
            <Array as="points">
              <mxPoint x="1235" y="780" />
            </Array>
          </mxGeometry>
        </mxCell>
        <mxCell id="ROyKjx6-kNw4g7D_P5h5-17" value="" style="html=1;points=[];perimeter=orthogonalPerimeter;" vertex="1" parent="1">
          <mxGeometry x="1230" y="480" width="10" height="80" as="geometry" />
        </mxCell>
        <mxCell id="ROyKjx6-kNw4g7D_P5h5-20" value="&lt;font style=&quot;font-size: 11px&quot;&gt;Получение ответа на запрос&lt;/font&gt;" style="html=1;verticalAlign=bottom;endArrow=open;dashed=1;endSize=8;strokeColor=#000000;exitX=-0.36;exitY=0.645;exitDx=0;exitDy=0;exitPerimeter=0;" edge="1" parent="1" source="ROyKjx6-kNw4g7D_P5h5-17">
          <mxGeometry relative="1" as="geometry">
            <mxPoint x="910" y="530" as="sourcePoint" />
            <mxPoint x="572" y="530" as="targetPoint" />
          </mxGeometry>
        </mxCell>
      </root>
    </mxGraphModel>
  </diagram>
</mxfile>
